# xmcd
# Track frame offsets:
# 150
# 13259
# 23901
# 34310
# 46437
# 57519
# 69150
# 82257
# 95245
# 108047
# 119261
# 131183
# 143372
# 154164
# 163328
# 173686
# 186866
# 198630
# 213987
# 237749
# 250972
# 262115
# 275470
# 288878
# 302966
#
# Disc length: 4183 seconds
# Revision: 0
# Processed by: cddbd v1.5.2PL0 Copyright (c) Steve Scherf et al.
# Submitted via: VisiTrax 2.11.3.279 - For more info visit www.synapsa.com
#
DISCID=80105519
DTITLE=Various (1940s-1960's) Pop and Rock n Roll and Jazz and Blues and R&B and Countr
DTITLE=y: Electric Guitar Artists - Pioneers Of The Electric Guitar - Scorchi
DTITLE=ng Licks, Slide Tricks and Seductive Picks: CD3 of 3: *ReMastered Tracks
DYEAR=2013
DGENRE=Blues
TTITLE0=Booker T and The M.G's - Green Onions*
TTITLE1=Speedy West and Jimmy Bryant - Old Joe Clark*
TTITLE2=Johnny and The Hurricanes - Sand Storm*
TTITLE3=Joe Maphis with Larry Collins - Flying Fingers*
TTITLE4=Oscar Moore Quintet The - Blues In B Flat*
TTITLE5=Pee Wee Crayton - Blues After Hours*
TTITLE6=Magic Sam - All Your Love*
TTITLE7=Carl Perkins - Her Love Rubbed Off*
TTITLE8=Rockin' R's The - The Beat*
TTITLE9=T-Bone Walker - Strollin' With Bones*
TTITLE10=Dick Hyman and Mundell Lowe with Trigger Alpert - Yes Sir, That's My Bab
TTITLE10=y
TTITLE11=Eddie Kirkland - I Need You, Baby*
TTITLE12=George Barnes - Liza (All The Clouds'll Roll Away)*
TTITLE13=Jimmy Reed - Jimmy's Rock*
TTITLE14=George Van Eps - Have You Met Miss Jones*
TTITLE15=Shadows The - Apache*
TTITLE16=Johnny Otis - Boogie Guitar*
TTITLE17=Buddy Guy - Skippin'*
TTITLE18=Tal Farlow - Yardbird Suite*
TTITLE19=Muddy Waters - Manish Boy*
TTITLE20=Memphis Minnie - Kissing In The Dark*
TTITLE21=Arthur 'Big Boy' Crudup - Gonna Find My Baby*
TTITLE22=Tampa Red - Sweet Little Angel*
TTITLE23=Otis Rush - I Can't Quit You Baby*
TTITLE24=Johnny Burnette - The Train Kept-A-Rollin'*
EXTD=Compilation and ReMastering: Not Now Music: 2013
EXTT0=
EXTT1=
EXTT2=
EXTT3=
EXTT4=
EXTT5=
EXTT6=
EXTT7=
EXTT8=
EXTT9=
EXTT10=
EXTT11=
EXTT12=
EXTT13=
EXTT14=
EXTT15=
EXTT16=
EXTT17=
EXTT18=
EXTT19=
EXTT20=
EXTT21=
EXTT22=
EXTT23=
EXTT24=
PLAYORDER=
